<?xml version="1.0" encoding="UTF-8"?>
<svg id="Layer_1" data-name="Layer 1" xmlns="http://www.w3.org/2000/svg" viewBox="0 0 2560 1454.51">
  <defs>
    <style>
      .cls-1, .cls-2, .cls-3, .cls-4 {
        fill: #231f20;
      }

      .cls-2 {
        stroke-width: 11.77px;
      }

      .cls-2, .cls-3, .cls-4 {
        stroke: #231f20;
        stroke-miterlimit: 10;
      }

      .cls-3 {
        stroke-width: 3.87px;
      }

      .cls-4 {
        stroke-width: 1.68px;
      }
    </style>
  </defs>
  <circle class="cls-1" cx="988.4" cy="777.83" r="43.19"/>
  <path class="cls-3" d="M1066.53,812.22c-.11,2.07.39,3.99,2.23,4.65,1.31.48,2.76,0,4.07-.49,135.66-49.97,267.11-105.23,398.39-170.27,2.4-1.19,3.75-4.05,2.96-6.61-1.1-3.55-4.77-3.46-7.77-3.12-86.23,9.81-172.32,20.96-258.21,33.44-27.91,4.06-55.81,8.25-83.68,12.59-14.13,2.2-28.24,4.56-42.38,6.7-4.35.66-31.62,5.29-38.1,6.3-2.85.58-5.94,1.31-6.53,5.44-.42,2.95.94,5.84,3.11,7.88,26.51,24.85,37.09,65.14,26.58,99.85-.34,1.11-.62,2.4-.68,3.64Z"/>
  <path class="cls-1" d="M1573.34,924.28h-88.74v88.74s-443.68,0-443.68,0c0-30.14,0-60.29,0-90.43,0-14.71-.68-29.46-1.43-44.14-.34-6.65.35-31.2-9.5-31.2-3.21,0-4.84,1.66-7.66,3.19-27.34,14.86-61.13,9.72-84.97-9.49-1.1-.89-2.19-1.8-3.24-2.75-15.42-13.73-23.57-32.17-24.64-52.5-.52-9.9-.5-19.52-.34-29.27.03-1.73.06-6.06.05-7.59,0-2.21-5.5-.44-7.4-.61-6.56-.57-13.15-.6-19.73-.32-4.17.18-8.33.48-12.49.86-1.21.11-6.06-1.93-6.06-.73,0,.75-.06,4.62-.05,5.47.02,4.69,0,9.56,0,14.3v333.95h88.74v88.74h532.42v-88.74h88.74v88.74h177.47V391.86h-88.73v-88.74h-709.89v88.74h-88.74v177.47h177.47v-88.74h532.42c3.98,0,0,396.53,0,443.68Z"/>
  <line class="cls-4" x1="863.5" y1="748.45" x2="909.18" y2="748.45"/>
  <line class="cls-2" x1="1035.9" y1="847.23" x2="1035.9" y2="1013.36"/>
</svg>