<?xml version="1.0" encoding="UTF-8"?>
<svg id="Layer_1" data-name="Layer 1" xmlns="http://www.w3.org/2000/svg" viewBox="0 0 2560 1271.23">
  <defs>
    <style>
      .cls-1, .cls-2 {
        fill: #231f20;
      }

      .cls-2 {
        font-family: VHSGothic, 'VHS Gothic';
        font-size: 551.9px;
      }
    </style>
  </defs>
  <path class="cls-1" d="M582.68,837.32v-30.86h-32.24v-123.44h32.24v-30.86h225.65v-61.72h-193.42v30.86h-64.47v-61.72h32.24v-30.86h257.89v30.86h32.24v277.74h-64.47v-30.86h-32.24v30.86h-193.42ZM776.1,775.6v-30.86h32.24v-30.86h-193.42v61.72h161.18Z"/>
  <path class="cls-1" d="M890.38,837.32v-61.72h32.24v-30.86h32.24v-30.86h32.24v-61.72h-32.24v-30.86h-32.24v-30.86h-32.24v-61.72h64.47v30.86h32.24v30.86h32.24v30.86h64.47v-30.86h32.24v-30.86h32.24v-30.86h64.47v61.72h-32.24v30.86h-32.24v30.86h-32.24v61.72h32.24v30.86h32.24v30.86h32.24v61.72h-64.47v-30.86h-32.24v-30.86h-32.24v-30.86h-64.47v30.86h-32.24v30.86h-32.24v30.86h-64.47Z"/>
  <path class="cls-1" d="M1230.31,837.32v-61.72h64.47v-308.6h-64.47v-61.72h128.94v370.32h64.47v61.72h-193.42Z"/>
  <polygon class="cls-1" points="1479.79 541.86 1479.79 233.26 1537.24 233.26 1537.24 264.12 1565.96 264.12 1565.96 233.26 1709.57 233.26 1709.57 264.12 1738.3 264.12 1738.3 294.98 1767.02 294.98 1767.02 356.7 1709.57 356.7 1709.57 325.84 1680.85 325.84 1680.85 294.98 1594.68 294.98 1594.68 325.84 1565.96 325.84 1565.96 356.7 1537.24 356.7 1537.24 541.86 1479.79 541.86"/>
  <path class="cls-1" d="M1751.22,837.32v-30.86h-32.24v-30.86h-32.24v-123.44h32.24v-61.72h-32.24v-123.44h32.24v-30.86h32.24v-30.86h193.42v30.86h32.24v30.86h32.24v123.44h-32.24v61.72h32.24v123.44h-32.24v30.86h-32.24v30.86h-193.42ZM1912.4,590.44v-30.86h32.24v-61.72h-32.24v-30.86h-128.94v30.86h-32.24v61.72h32.24v30.86h128.94ZM1912.4,775.6v-30.86h32.24v-61.72h-32.24v-30.86h-128.94v30.86h-32.24v61.72h32.24v30.86h128.94Z"/>
  <text class="cls-2" transform="translate(1366.26 1258.14)"><tspan x="0" y="0">^</tspan></text>
  <rect class="cls-1" x="1479.79" y="541.86" width="64.47" height="103.55"/>
</svg>