<?xml version="1.0" encoding="utf-8"?>
<!-- Generator: Adobe Illustrator 24.1.3, SVG Export Plug-In . SVG Version: 6.00 Build 0)  -->
<svg version="1.1" id="Layer_1" xmlns="http://www.w3.org/2000/svg" xmlns:xlink="http://www.w3.org/1999/xlink" x="0px" y="0px"
	 viewBox="0 0 1051.7 1051.7" style="enable-background:new 0 0 1051.7 1051.7;" xml:space="preserve">
<style type="text/css">
	.st0{fill:#231F20;}
	.st1{fill:#FFFFFF;stroke:#231F20;stroke-width:2.3;stroke-miterlimit:10;}
	.st2{fill:#FFFFFF;}
	.st3{fill:none;stroke:#FFFFFF;stroke-miterlimit:10;}
	.st4{fill:none;stroke:#231F20;stroke-width:7;stroke-miterlimit:10;}
</style>
<polygon class="st0" points="974.6,802.8 834.6,791.3 867,928 737.4,873.7 726.1,1013.7 619.6,922 565.5,1051.7 492.6,931.6 
	401.1,1038.2 368.8,901.5 248.9,974.6 260.4,834.6 123.7,867 178,737.4 38,726.1 129.7,619.6 0,565.5 120.1,492.6 13.5,401.1 
	150.2,368.8 77.1,248.9 217.1,260.4 184.7,123.7 314.3,178 325.6,38 432.1,129.7 486.2,0 559.1,120.1 650.6,13.5 682.9,150.2 
	802.9,77.1 791.3,217.1 928,184.7 873.7,314.3 1013.7,325.6 922,432.1 1051.7,486.2 931.6,559.1 1038.2,650.6 901.5,682.9 "/>
<path class="st1" d="M382.7,567.6c-0.1,1.2,0.2,2.4,1.3,2.8c0.8,0.3,1.6,0,2.4-0.3c80.7-29.7,158.9-62.6,237-101.3
	c1.4-0.7,2.2-2.4,1.8-3.9c-0.7-2.1-2.8-2.1-4.6-1.9c-51.3,5.8-102.5,12.5-153.6,19.9c-16.6,2.4-33.2,4.9-49.8,7.5
	c-8.4,1.3-16.8,2.7-25.2,4c-2.6,0.4-18.8,3.2-22.7,3.8c-1.7,0.3-3.5,0.8-3.9,3.2c-0.3,1.8,0.6,3.5,1.8,4.7
	c15.8,14.8,22.1,38.7,15.8,59.4C383,566.1,382.8,566.9,382.7,567.6L382.7,567.6z"/>
<path class="st2" d="M684.2,634.3h-52.8V687H367.5c0-17.9,0-35.9,0-53.8c0-8.8-0.4-17.5-0.8-26.3c-0.2-4,0.2-18.6-5.7-18.6
	c-1.9,0-2.9,1-4.6,1.9c-16.3,8.8-36.4,5.8-50.5-5.7c-0.7-0.5-1.3-1.1-1.9-1.6c-9.2-8.2-14-19.1-14.7-31.2
	c-0.3-5.9-0.3-11.6-0.2-17.4c0-1,0-3.6,0-4.5c0-1.3-3.3-0.3-4.4-0.4c-3.9-0.3-7.8-0.4-11.7-0.2c-2.5,0.1-5,0.3-7.4,0.5
	c-0.7,0.1-3.6-1.2-3.6-0.4c0,0.4,0,2.8,0,3.3c0,2.8,0,5.7,0,8.5v198.6h52.8v52.8h316.7v-52.8h52.8v52.8h105.6v-475H737v-52.8H314.7
	v52.8h-52.8v105.6h105.6v-52.8h316.7C686.6,370.4,684.2,606.2,684.2,634.3L684.2,634.3z"/>
<line class="st3" x1="262" y1="529.7" x2="289.1" y2="529.7"/>
<line class="st4" x1="364.5" y1="588.4" x2="364.5" y2="687.3"/>
<polygon class="st0" points="-298.6,726.8 -299.6,723.6 -302.9,724.4 -300.5,721.9 -302.9,719.5 -299.6,720.3 -298.6,717 
	-297.7,720.3 -294.4,719.5 -296.8,721.9 -294.4,724.4 -297.7,723.6 "/>
<circle class="st2" cx="338.8" cy="545.3" r="21.6"/>
<text transform="matrix(1 0 0 1 -537.52 467.12)" class="st0" style="font-family:'ArialMT'; font-size:12px;">L</text>
<text transform="matrix(1 0 0 1 -532.02 467.12)" class="st0" style="font-family:'ArialMT'; font-size:12px;">o</text>
<text transform="matrix(1 0 0 1 -525.44 467.12)" class="st0" style="font-family:'ArialMT'; font-size:12px;">r</text>
<text transform="matrix(1 0 0 1 -521.63 467.12)" class="st0" style="font-family:'ArialMT'; font-size:12px;">em ipsum</text>
</svg>
