<svg xmlns="http://www.w3.org/2000/svg" id="Layer_1" data-name="Layer 1" viewBox="215.41 194.15 1590.22 1051.7">
  <defs>
    <style>
      .cls-1, .cls-2 {
        fill: #231f20;
      }

      .cls-3 {
        stroke-width: 2.3px;
      }

      .cls-3, .cls-4 {
        stroke: #231f20;
      }

      .cls-3, .cls-4, .cls-5, .cls-6 {
        fill: #fff;
      }

      .cls-3, .cls-4, .cls-6 {
        stroke-miterlimit: 10;
      }

      .cls-4 {
        stroke-width: 7px;
      }

      .cls-2 {
        font-family: MyriadPro-Regular, 'Myriad Pro';
        font-size: 12px;
      }

      .cls-7 {
        letter-spacing: 0em;
      }

      .cls-6 {
        stroke: #fff;
      }

      .cls-8 {
        letter-spacing: -.01em;
      }

      .cls-9 {
        letter-spacing: -.01em;
      }
    </style>
  </defs>
  <polygon class="cls-1" points="1728.52 997 1588.5 985.42 1620.96 1122.11 1491.37 1067.83 1480 1207.86 1373.53 1116.19 1319.44 1245.85 1246.52 1125.77 1155 1232.37 1122.75 1095.63 1002.78 1168.74 1014.36 1028.72 877.67 1061.18 931.95 931.6 791.92 920.22 883.59 813.75 753.93 759.66 874.01 686.74 767.41 595.23 904.15 562.97 831.04 443 971.05 454.58 938.6 317.89 1068.18 372.17 1079.56 232.14 1186.02 323.81 1240.11 194.15 1313.04 314.23 1404.55 207.63 1436.8 344.37 1556.78 271.26 1545.2 411.28 1681.89 378.82 1627.61 508.4 1767.64 519.78 1675.97 626.25 1805.63 680.34 1685.55 753.26 1792.15 844.77 1655.41 877.03 1728.52 997"/>
  <path class="cls-3" d="M1136.67,761.77c-.06,1.23.23,2.37,1.33,2.77.78.28,1.64,0,2.42-.29,80.69-29.72,158.87-62.59,236.96-101.27,1.43-.71,2.23-2.41,1.76-3.93-.65-2.11-2.83-2.06-4.62-1.86-51.29,5.84-102.49,12.47-153.58,19.89-16.6,2.41-33.19,4.91-49.77,7.49-8.4,1.31-16.8,2.71-25.2,3.99-2.59.39-18.81,3.15-22.66,3.75-1.69.34-3.54.78-3.89,3.24-.25,1.75.56,3.47,1.85,4.68,15.77,14.78,22.06,38.74,15.81,59.39-.2.66-.37,1.43-.4,2.16Z"/>
  <path class="cls-5" d="M1438.12,828.42h-52.78v52.78s-263.9,0-263.9,0c0-17.93,0-35.86,0-53.79,0-8.75-.4-17.52-.85-26.25-.2-3.96.21-18.56-5.65-18.56-1.91,0-2.88.99-4.56,1.9-16.26,8.84-36.36,5.78-50.54-5.65-.66-.53-1.3-1.07-1.93-1.63-9.17-8.17-14.02-19.13-14.66-31.23-.31-5.89-.3-11.61-.2-17.41.02-1.03.03-3.6.03-4.51,0-1.32-3.27-.26-4.4-.36-3.9-.34-7.82-.36-11.73-.19-2.48.11-4.96.29-7.43.51-.72.07-3.61-1.15-3.61-.43,0,.45-.04,2.75-.03,3.25.01,2.79,0,5.68,0,8.51v198.63h52.78v52.78h316.68v-52.78h52.78v52.78h105.56v-475.02h-52.78v-52.78h-422.24v52.78h-52.78v105.56h105.56v-52.78h316.68c2.37,0,0,235.85,0,263.9Z"/>
  <line class="cls-6" x1="1015.91" y1="723.83" x2="1043.08" y2="723.83"/>
  <line class="cls-4" x1="1118.45" y1="782.59" x2="1118.45" y2="881.4"/>
  <polygon class="cls-1" points="455.28 920.99 454.34 917.7 451.03 918.54 453.4 916.08 451.03 913.63 454.34 914.46 455.28 911.17 456.22 914.46 459.53 913.63 457.15 916.08 459.53 918.54 456.22 917.7 455.28 920.99"/>
  <circle class="cls-5" cx="1092.77" cy="739.4" r="21.59"/>
  <text class="cls-2" transform="translate(216.41 661.27)"><tspan class="cls-8" x="0" y="0">L</tspan><tspan x="5.5" y="0">o</tspan><tspan class="cls-9" x="12.08" y="0">r</tspan><tspan class="cls-7" x="15.89" y="0">em ipsum</tspan></text>
</svg>